<svg width="884" height="442" viewBox="0 0 884 442" fill="none" xmlns="http://www.w3.org/2000/svg">
<g clip-path="url(#clip0)">
<path d="M442 228.909C485.507 228.909 520.78 187.625 520.78 136.7C520.78 66.0816 485.509 44.4932 442 44.4932C398.491 44.4932 363.221 66.0816 363.221 136.7C363.222 187.625 398.491 228.909 442 228.909Z" fill="#16DCFA"/>
<path d="M615.962 364.627L576.216 275.093C574.399 270.996 571.205 267.598 567.23 265.529L505.548 233.419C504.187 232.713 502.54 232.85 501.318 233.776C483.872 246.971 463.359 253.946 442 253.946C420.638 253.946 400.127 246.971 382.681 233.776C381.455 232.85 379.808 232.713 378.448 233.419L316.77 265.529C312.793 267.598 309.603 270.995 307.783 275.093L268.038 364.627C265.298 370.799 265.86 377.861 269.541 383.523C273.221 389.184 279.448 392.562 286.2 392.562H597.798C604.55 392.562 610.779 389.182 614.459 383.522C618.138 377.861 618.702 370.797 615.962 364.627Z" fill="#16DCFA"/>
</g>
<g clip-path="url(#clip1)">
<path d="M437 228.909C480.507 228.909 515.78 187.625 515.78 136.7C515.78 66.0816 480.509 44.4932 437 44.4932C393.491 44.4932 358.221 66.0816 358.221 136.7C358.222 187.625 393.491 228.909 437 228.909Z" fill="#3594C7"/>
<path d="M610.962 364.627L571.216 275.093C569.399 270.996 566.205 267.598 562.23 265.529L500.548 233.419C499.187 232.713 497.54 232.85 496.318 233.776C478.872 246.971 458.359 253.946 437 253.946C415.638 253.946 395.127 246.971 377.681 233.776C376.455 232.85 374.808 232.713 373.448 233.419L311.77 265.529C307.793 267.598 304.603 270.995 302.783 275.093L263.038 364.627C260.298 370.799 260.86 377.861 264.541 383.523C268.221 389.183 274.448 392.562 281.2 392.562H592.798C599.55 392.562 605.779 389.182 609.459 383.522C613.138 377.861 613.702 370.796 610.962 364.627Z" fill="#3594C7"/>
</g>
<defs>
<clipPath id="clip0">
<rect width="442" height="442" fill="white"/>
</clipPath>
<clipPath id="clip1">
<rect width="442" height="442" fill="white" transform="translate(442)"/>
</clipPath>
</defs>
</svg>
